<svg width="914" height="400" fill="none" xmlns="http://www.w3.org/2000/svg">
  <path fill="#fff" d="M0 0h914v400H0z"/>
  <path d="M446.282 209c.7 0 1.26-.56 1.26-1.26s-.56-1.26-1.26-1.26h-.672v-4.592c0-1.876 1.092-3.108 3.024-3.108.784 0 1.428-.644 1.428-1.428 0-.784-.644-1.428-1.428-1.428-1.176 0-2.492.7-3.024 1.792v-.14c0-.784-.644-1.288-1.4-1.288h-2.296c-.7 0-1.26.56-1.26 1.26 0 .728.56 1.26 1.26 1.26h.672v7.672h-.672c-.7 0-1.26.56-1.26 1.26 0 .728.56 1.26 1.26 1.26h4.368zm12.188-9.576c.308.224.56.392.952.392.728 0 1.344-.616 1.344-1.344 0-.42-.112-.616-.28-.84-.784-.98-2.548-1.736-4.536-1.736-2.576 0-4.676 1.232-4.676 3.752 0 4.76 6.86 3.584 6.86 5.852 0 .784-.812 1.12-2.072 1.12-1.4 0-2.324-.532-3.08-1.148-.308-.252-.588-.336-.868-.336-.728 0-1.344.616-1.344 1.344 0 .336.112.588.336.868.7.868 2.548 1.96 4.956 1.96 2.884 0 5.124-1.344 5.124-3.976 0-4.62-6.888-3.668-6.888-5.74 0-.7.616-1.064 1.652-1.064 1.148 0 1.904.448 2.52.896zm14.746 6.272c0-.7-.56-1.26-1.26-1.26s-1.26.56-1.26 1.26v.728h-3.864l5.908-7.924c.168-.224.308-.476.308-.868 0-.728-.616-1.344-1.344-1.344h-7.196c-.672 0-1.26.504-1.26 1.176v1.848c0 .7.56 1.26 1.26 1.26.728 0 1.26-.56 1.26-1.26v-.504h3.472l-6.02 8.064c-.168.224-.308.448-.308.84 0 .7.588 1.288 1.288 1.288h7.728c.7 0 1.288-.588 1.288-1.288v-2.016z" fill="#333"/>
</svg>
